REM DIRINDEX 1\2,1\3
REM DIRNAME cjc102,folder01,folder02
TITLE ""
FILE "CD2Track14.mp3" MP3
  TRACK 01 AUDIO
    TITLE "0:"
    INDEX 01 00:00:00
  TRACK 02 AUDIO
    TITLE "3:cjc102_2888"
    INDEX 01 00:00:25
  TRACK 03 AUDIO
    TITLE "0:"
    INDEX 01 00:01:22
  TRACK 04 AUDIO
    TITLE "2:cjc102_2889"
    INDEX 01 00:01:66
  TRACK 05 AUDIO
    TITLE "0:"
    INDEX 01 00:02:67
  TRACK 06 AUDIO
    TITLE "3:cjc102_2890"
    INDEX 01 00:04:13
  TRACK 07 AUDIO
    TITLE "0:"
    INDEX 01 00:04:70
  TRACK 08 AUDIO
    TITLE "2:cjc102_2891"
    INDEX 01 00:05:38
  TRACK 09 AUDIO
    TITLE "0:"
    INDEX 01 00:06:41
  TRACK 10 AUDIO
    TITLE "3:cjc102_2892"
    INDEX 01 00:08:07
  TRACK 11 AUDIO
    TITLE "0:"
    INDEX 01 00:09:06
  TRACK 12 AUDIO
    TITLE "2:cjc102_2893"
    INDEX 01 00:09:42
  TRACK 13 AUDIO
    TITLE "0:"
    INDEX 01 00:10:41
  TRACK 14 AUDIO
    TITLE "3:cjc102_2894"
    INDEX 01 00:12:09
  TRACK 15 AUDIO
    TITLE "0:"
    INDEX 01 00:13:02
  TRACK 16 AUDIO
    TITLE "2:cjc102_2895"
    INDEX 01 00:13:26
  TRACK 17 AUDIO
    TITLE "0:"
    INDEX 01 00:14:23
  TRACK 18 AUDIO
    TITLE "3:cjc102_2896"
    INDEX 01 00:15:58
  TRACK 19 AUDIO
    TITLE "0:"
    INDEX 01 00:16:38
  TRACK 20 AUDIO
    TITLE "2:cjc102_2897"
    INDEX 01 00:17:35
  TRACK 21 AUDIO
    TITLE "0:"
    INDEX 01 00:18:29
  TRACK 22 AUDIO
    TITLE "3:cjc102_2898"
    INDEX 01 00:20:00
  TRACK 23 AUDIO
    TITLE "0:"
    INDEX 01 00:20:71
  TRACK 24 AUDIO
    TITLE "2:cjc102_2899"
    INDEX 01 00:21:25
  TRACK 25 AUDIO
    TITLE "0:"
    INDEX 01 00:22:29
  TRACK 26 AUDIO
    TITLE "3:cjc102_2900"
    INDEX 01 00:24:06
  TRACK 27 AUDIO
    TITLE "0:"
    INDEX 01 00:25:01
  TRACK 28 AUDIO
    TITLE "2:cjc102_2901"
    INDEX 01 00:25:64
  TRACK 29 AUDIO
    TITLE "0:"
    INDEX 01 00:27:02
  TRACK 30 AUDIO
    TITLE "3:cjc102_2902"
    INDEX 01 00:28:04
  TRACK 31 AUDIO
    TITLE "0:"
    INDEX 01 00:28:74
  TRACK 32 AUDIO
    TITLE "2:cjc102_2903"
    INDEX 01 00:29:34
  TRACK 33 AUDIO
    TITLE "0:"
    INDEX 01 00:30:32
  TRACK 34 AUDIO
    TITLE "3:cjc102_2904"
    INDEX 01 00:31:61
  TRACK 35 AUDIO
    TITLE "0:"
    INDEX 01 00:32:54
  TRACK 36 AUDIO
    TITLE "2:cjc102_2905"
    INDEX 01 00:33:26
  TRACK 37 AUDIO
    TITLE "0:"
    INDEX 01 00:34:49
  TRACK 38 AUDIO
    TITLE "3:cjc102_2906"
    INDEX 01 00:36:07
  TRACK 39 AUDIO
    TITLE "0:"
    INDEX 01 00:37:01
  TRACK 40 AUDIO
    TITLE "2:cjc102_2907"
    INDEX 01 00:37:63
  TRACK 41 AUDIO
    TITLE "0:"
    INDEX 01 00:38:53
  TRACK 42 AUDIO
    TITLE "3:cjc102_2908"
    INDEX 01 00:40:21
  TRACK 43 AUDIO
    TITLE "0:"
    INDEX 01 00:41:38
  TRACK 44 AUDIO
    TITLE "2:cjc102_2909"
    INDEX 01 00:41:71
  TRACK 45 AUDIO
    TITLE "0:"
    INDEX 01 00:42:72
  TRACK 46 AUDIO
    TITLE "3:cjc102_2910"
    INDEX 01 00:44:34
  TRACK 47 AUDIO
    TITLE "0:"
    INDEX 01 00:45:43
  TRACK 48 AUDIO
    TITLE "2:cjc102_2911"
    INDEX 01 00:46:19
  TRACK 49 AUDIO
    TITLE "0:"
    INDEX 01 00:47:23
  TRACK 50 AUDIO
    TITLE "3:cjc102_2912"
    INDEX 01 00:48:55
  TRACK 51 AUDIO
    TITLE "0:"
    INDEX 01 00:50:01
  TRACK 52 AUDIO
    TITLE "2:cjc102_2913"
    INDEX 01 00:50:58
  TRACK 53 AUDIO
    TITLE "0:"
    INDEX 01 00:51:56
  TRACK 54 AUDIO
    TITLE "3:cjc102_2914"
    INDEX 01 00:53:47
  TRACK 55 AUDIO
    TITLE "0:"
    INDEX 01 00:54:64
  TRACK 56 AUDIO
    TITLE "2:cjc102_2915"
    INDEX 01 00:55:16
  TRACK 57 AUDIO
    TITLE "0:"
    INDEX 01 00:56:25
  TRACK 58 AUDIO
    TITLE "3:cjc102_2916"
    INDEX 01 00:57:54
  TRACK 59 AUDIO
    TITLE "0:"
    INDEX 01 00:58:62
  TRACK 60 AUDIO
    TITLE "2:cjc102_2917"
    INDEX 01 00:59:57
  TRACK 61 AUDIO
    TITLE "0:"
    INDEX 01 01:00:66
  TRACK 62 AUDIO
    TITLE "3:cjc102_2918"
    INDEX 01 01:02:42
  TRACK 63 AUDIO
    TITLE "0:"
    INDEX 01 01:03:53
  TRACK 64 AUDIO
    TITLE "2:cjc102_2919"
    INDEX 01 01:04:01
  TRACK 65 AUDIO
    TITLE "0:"
    INDEX 01 01:05:07
  TRACK 66 AUDIO
    TITLE "3:cjc102_2920"
    INDEX 01 01:06:61
  TRACK 67 AUDIO
    TITLE "0:"
    INDEX 01 01:08:07
  TRACK 68 AUDIO
    TITLE "2:cjc102_2921"
    INDEX 01 01:08:35
  TRACK 69 AUDIO
    TITLE "0:"
    INDEX 01 01:09:46
  TRACK 70 AUDIO
    TITLE "3:cjc102_2922"
    INDEX 01 01:10:67
  TRACK 71 AUDIO
    TITLE "0:"
    INDEX 01 01:12:17
  TRACK 72 AUDIO
    TITLE "2:cjc102_2923"
    INDEX 01 01:12:24
  TRACK 73 AUDIO
    TITLE "0:"
    INDEX 01 01:13:38
  TRACK 74 AUDIO
    TITLE "3:cjc102_2924"
    INDEX 01 01:15:46
  TRACK 75 AUDIO
    TITLE "0:"
    INDEX 01 01:16:71
  TRACK 76 AUDIO
    TITLE "2:cjc102_2925"
    INDEX 01 01:17:37
  TRACK 77 AUDIO
    TITLE "0:"
    INDEX 01 01:18:53
  TRACK 78 AUDIO
    TITLE "3:cjc102_2926"
    INDEX 01 01:20:04
  TRACK 79 AUDIO
    TITLE "0:"
    INDEX 01 01:21:16
  TRACK 80 AUDIO
    TITLE "2:cjc102_2927"
    INDEX 01 01:21:18
  TRACK 81 AUDIO
    TITLE "0:"
    INDEX 01 01:22:23
  TRACK 82 AUDIO
    TITLE "3:cjc102_2928"
    INDEX 01 01:23:36
  TRACK 83 AUDIO
    TITLE "0:"
    INDEX 01 01:24:65
  TRACK 84 AUDIO
    TITLE "2:cjc102_2929"
    INDEX 01 01:25:09
  TRACK 85 AUDIO
    TITLE "0:"
    INDEX 01 01:26:07
  TRACK 86 AUDIO
    TITLE "3:cjc102_2930"
    INDEX 01 01:27:28
  TRACK 87 AUDIO
    TITLE "0:"
    INDEX 01 01:28:49
  TRACK 88 AUDIO
    TITLE "2:cjc102_2931"
    INDEX 01 01:29:03
  TRACK 89 AUDIO
    TITLE "0:"
    INDEX 01 01:30:05
  TRACK 90 AUDIO
    TITLE "3:cjc102_2932"
    INDEX 01 01:31:51
  TRACK 91 AUDIO
    TITLE "0:"
    INDEX 01 01:32:60
  TRACK 92 AUDIO
    TITLE "2:cjc102_2933"
    INDEX 01 01:32:62
  TRACK 93 AUDIO
    TITLE "0:"
    INDEX 01 01:33:62
  TRACK 94 AUDIO
    TITLE "3:cjc102_2934"
    INDEX 01 01:35:10
  TRACK 95 AUDIO
    TITLE "0:"
    INDEX 01 01:36:41
  TRACK 96 AUDIO
    TITLE "2:cjc102_2935"
    INDEX 01 01:36:72
  TRACK 97 AUDIO
    TITLE "0:"
    INDEX 01 01:38:08
  TRACK 98 AUDIO
    TITLE "3:cjc102_2936"
    INDEX 01 01:39:25
  TRACK 99 AUDIO
    TITLE "0:"
    INDEX 01 01:40:44
  TRACK 100 AUDIO
    TITLE "2:cjc102_2937"
    INDEX 01 01:41:03
  TRACK 101 AUDIO
    TITLE "0:"
    INDEX 01 01:42:14
  TRACK 102 AUDIO
    TITLE "3:cjc102_2938"
    INDEX 01 01:43:17
  TRACK 103 AUDIO
    TITLE "0:"
    INDEX 01 01:44:52
  TRACK 104 AUDIO
    TITLE "2:cjc102_2939"
    INDEX 01 01:44:64
  TRACK 105 AUDIO
    TITLE "0:"
    INDEX 01 01:45:65
  TRACK 106 AUDIO
    TITLE "3:cjc102_2940"
    INDEX 01 01:46:72
  TRACK 107 AUDIO
    TITLE "0:"
    INDEX 01 01:48:28
  TRACK 108 AUDIO
    TITLE "2:cjc102_2941"
    INDEX 01 01:48:48
  TRACK 109 AUDIO
    TITLE "0:"
    INDEX 01 01:49:53
  TRACK 110 AUDIO
    TITLE "3:cjc102_2942"
    INDEX 01 01:50:58
  TRACK 111 AUDIO
    TITLE "0:"
    INDEX 01 01:52:16
  TRACK 112 AUDIO
    TITLE "2:cjc102_2943"
    INDEX 01 01:52:30
  TRACK 113 AUDIO
    TITLE "0:"
    INDEX 01 01:53:41
  TRACK 114 AUDIO
    TITLE "3:cjc102_2944"
    INDEX 01 01:54:58
  TRACK 115 AUDIO
    TITLE "0:"
    INDEX 01 01:56:14
  TRACK 116 AUDIO
    TITLE "2:cjc102_2945"
    INDEX 01 01:56:49
  TRACK 117 AUDIO
    TITLE "0:"
    INDEX 01 01:57:64
  TRACK 118 AUDIO
    TITLE "2:cjc102_2946"
    INDEX 01 01:58:38
  TRACK 119 AUDIO
    TITLE "0:"
    INDEX 01 01:59:44
  TRACK 120 AUDIO
    TITLE "3:cjc102_2947"
    INDEX 01 02:00:12
  TRACK 121 AUDIO
    TITLE "0:"
    INDEX 01 02:01:29
  TRACK 122 AUDIO
    TITLE "2:cjc102_2948"
    INDEX 01 02:02:15
  TRACK 123 AUDIO
    TITLE "0:"
    INDEX 01 02:03:20
  TRACK 124 AUDIO
    TITLE "2:cjc102_2949"
    INDEX 01 02:04:06
  TRACK 125 AUDIO
    TITLE "0:"
    INDEX 01 02:05:19
  TRACK 126 AUDIO
    TITLE "3:cjc102_2950"
    INDEX 01 02:06:10
  TRACK 127 AUDIO
    TITLE "0:"
    INDEX 01 02:07:43
  TRACK 128 AUDIO
    TITLE "2:cjc102_2951"
    INDEX 01 02:07:67
  TRACK 129 AUDIO
    TITLE "0:"
    INDEX 01 02:09:01
  TRACK 130 AUDIO
    TITLE "2:cjc102_2952"
    INDEX 01 02:09:69
  TRACK 131 AUDIO
    TITLE "0:"
    INDEX 01 02:11:02
